<svg id="Capa_1" enable-background="new 0 0 512 512" height="512" viewBox="0 0 512 512" width="512" xmlns="http://www.w3.org/2000/svg"><g><g><g><g><circle cx="344.881" cy="43.732" r="10.384"/><circle cx="382.867" cy="43.732" r="10.384"/><circle cx="420.852" cy="43.732" r="10.384"/></g></g></g><g><path d="m444.551 0h-377.102c-14.119 0-25.607 11.487-25.607 25.606v460.787c0 14.12 11.487 25.607 25.607 25.607h377.102c14.12 0 25.607-11.487 25.607-25.607v-460.787c0-14.119-11.488-25.606-25.607-25.606zm0 497h-377.102c-5.849 0-10.607-4.758-10.607-10.607v-398.929h19.49c4.142 0 7.5-3.358 7.5-7.5s-3.358-7.5-7.5-7.5h-19.49v-46.858c0-5.848 4.759-10.606 10.607-10.606h377.102c5.849 0 10.607 4.758 10.607 10.606v46.857h-343.72c-4.142 0-7.5 3.358-7.5 7.5s3.358 7.5 7.5 7.5h343.72v398.929c0 5.85-4.759 10.608-10.607 10.608z"/><path d="m256 263.5c41.249 0 74.861-33.601 74.861-74.861 0-41.278-33.583-74.861-74.861-74.861s-74.861 33.583-74.861 74.861c0 41.248 33.601 74.861 74.861 74.861zm-36.528-27.486c4.263-9.76 12.42-17.573 22.387-21.383 4.252 2.16 9.055 3.386 14.141 3.386s9.889-1.226 14.141-3.386c9.967 3.81 18.124 11.624 22.387 21.383-10.116 7.818-22.784 12.486-36.528 12.486s-26.412-4.668-36.528-12.486zm36.528-32.997c-9.007 0-16.335-7.328-16.335-16.335s7.328-16.335 16.335-16.335 16.335 7.328 16.335 16.335-7.328 16.335-16.335 16.335zm0-74.239c33.007 0 59.861 26.854 59.861 59.861 0 13.571-4.547 26.097-12.187 36.149-5.026-8.893-12.421-16.172-21.403-21.056 3.198-4.911 5.065-10.765 5.065-17.05 0-17.278-14.057-31.335-31.335-31.335s-31.335 14.057-31.335 31.335c0 6.285 1.867 12.139 5.065 17.05-8.982 4.885-16.377 12.163-21.403 21.056-7.641-10.052-12.187-22.577-12.187-36.149-.002-33.007 26.852-59.861 59.859-59.861z"/><path d="m407.87 329.988h-29.56c-4.142 0-7.5 3.358-7.5 7.5s3.358 7.5 7.5 7.5h29.56c1.303 0 2.363 1.06 2.363 2.363v95.128c0 1.303-1.06 2.363-2.363 2.363h-116.272c-1.303 0-2.363-1.06-2.363-2.363v-20.738h44.107c9.574 0 17.363-7.789 17.363-17.363v-95.128c0-9.574-7.789-17.363-17.363-17.363h-154.684c-9.574 0-17.363 7.789-17.363 17.363v95.128c0 9.574 7.789 17.363 17.363 17.363h44.107v20.738c0 1.303-1.06 2.363-2.363 2.363h-116.272c-1.303 0-2.363-1.06-2.363-2.363v-95.128c0-1.303 1.06-2.363 2.363-2.363h29.56c4.142 0 7.5-3.358 7.5-7.5s-3.358-7.5-7.5-7.5h-29.56c-9.574 0-17.363 7.789-17.363 17.363v95.128c0 9.574 7.789 17.363 17.363 17.363h116.272c9.574 0 17.363-7.789 17.363-17.363v-20.738h36.469v20.738c0 9.574 7.789 17.363 17.363 17.363h116.273c9.574 0 17.363-7.789 17.363-17.363v-95.128c0-9.574-7.789-17.363-17.363-17.363zm-231.575 74.39v-95.128c0-1.303 1.06-2.363 2.363-2.363h154.684c1.303 0 2.363 1.06 2.363 2.363v95.128c0 1.303-1.06 2.363-2.363 2.363h-154.684c-1.303.001-2.363-1.059-2.363-2.363z"/></g></g></svg>